<?xml version="1.0" encoding="UTF-8" standalone="no"?>
<svg
   height="20"
   viewBox="0 0 40 20"
   width="40"
   version="1.1"
   id="svg1"
   sodipodi:docname="publicacao.svg"
   xml:space="preserve"
   inkscape:version="1.3 (0e150ed6c4, 2023-07-21)"
   xmlns:inkscape="http://www.inkscape.org/namespaces/inkscape"
   xmlns:sodipodi="http://sodipodi.sourceforge.net/DTD/sodipodi-0.dtd"
   xmlns="http://www.w3.org/2000/svg"
   xmlns:svg="http://www.w3.org/2000/svg"><defs
     id="defs1" /><sodipodi:namedview
     id="namedview1"
     pagecolor="#ffffff"
     bordercolor="#000000"
     borderopacity="0.25"
     inkscape:showpageshadow="2"
     inkscape:pageopacity="0.0"
     inkscape:pagecheckerboard="0"
     inkscape:deskcolor="#d1d1d1"
     showgrid="false"
     inkscape:zoom="15.4375"
     inkscape:cx="28.955466"
     inkscape:cy="16.356275"
     inkscape:window-width="1680"
     inkscape:window-height="979"
     inkscape:window-x="-8"
     inkscape:window-y="-8"
     inkscape:window-maximized="1"
     inkscape:current-layer="svg1" /><path
     d="M 10.259109,2 H 4.2591093 c -1.11,0 -2,0.89 -2,2 v 12 a 2,2 0 0 0 2,2 H 20.259109 a 2,2 0 0 0 2,-2 V 6 c 0,-1.11 -0.9,-2 -2,-2 h -8 z"
     fill="#ffd767"
     id="path1" /><g
     id="g1"
     transform="matrix(0.83333333,0,0,0.83333333,21.012146,-0.05668017)"><path
       d="M 6,2 C 4.89,2 4,2.89 4,4 v 16 c 0,1.104569 0.8954305,2 2,2 h 12 c 1.104569,0 2,-0.895431 2,-2 V 8 L 14,2 Z"
       fill="#1fb58f"
       id="path1-2" /><path
       d="M 7.9293687,6.1524105 V 19.485715 h 2.6666683 v -5.333333 h 2.666669 a 2.666666,2.6666665 0 0 0 2.666669,-2.666666 V 8.819059 A 2.666666,2.6666665 0 0 0 13.262706,6.1524105 Z M 10.596037,8.819059 h 2.666669 v 2.666657 h -2.666669 z"
       fill="#00ffff"
       stroke-width="1.33333"
       id="path2" /></g></svg>
