<?xml version="1.0" encoding="UTF-8" standalone="no"?>
<svg
   height="20"
   viewBox="0 0 48 20"
   width="48"
   version="1.1"
   id="svg1"
   sodipodi:docname="processo_sigiloso.svg"
   xml:space="preserve"
   inkscape:version="1.3 (0e150ed6c4, 2023-07-21)"
   xmlns:inkscape="http://www.inkscape.org/namespaces/inkscape"
   xmlns:sodipodi="http://sodipodi.sourceforge.net/DTD/sodipodi-0.dtd"
   xmlns="http://www.w3.org/2000/svg"
   xmlns:svg="http://www.w3.org/2000/svg"><defs
     id="defs1" /><sodipodi:namedview
     id="namedview1"
     pagecolor="#ffffff"
     bordercolor="#000000"
     borderopacity="0.25"
     inkscape:showpageshadow="2"
     inkscape:pageopacity="0.0"
     inkscape:pagecheckerboard="0"
     inkscape:deskcolor="#d1d1d1"
     showgrid="false"
     inkscape:zoom="15.4375"
     inkscape:cx="28.955466"
     inkscape:cy="16.291498"
     inkscape:window-width="1680"
     inkscape:window-height="979"
     inkscape:window-x="1672"
     inkscape:window-y="-8"
     inkscape:window-maximized="1"
     inkscape:current-layer="svg1" /><path
     d="M 10.259109,2 H 4.2591093 c -1.11,0 -2,0.89 -2,2 v 12 a 2,2 0 0 0 2,2 H 20.259109 a 2,2 0 0 0 2,-2 V 6 c 0,-1.11 -0.9,-2 -2,-2 h -8 z"
     fill="#ffd767"
     id="path1" /><path
     d="m 29.493927,12.388664 c -1.104569,0 -2,-0.895431 -2,-2 0,-1.1045695 0.895431,-2 2,-2 1.104569,0 2,0.8954305 2,2 0,1.104569 -0.895431,2 -2,2 m 5.65,-4 c -0.82,-2.33 -3.04,-4 -5.65,-4 -3.313708,0 -6,2.6862915 -6,6 0,3.313708 2.686292,6 6,6 2.61,0 4.83,-1.67 5.65,-4 h 4.35 v 4 h 4 v -4 h 2 v -4 z"
     fill="#fedc3d"
     id="path1-6"
     style="fill:#ed1c24;fill-opacity:1"
     sodipodi:nodetypes="cc" /></svg>
